<?xml version="1.0" encoding="UTF-8"?> <svg xmlns="http://www.w3.org/2000/svg" viewBox="0 0 621.00 621.00" data-guides="{&quot;vertical&quot;:[],&quot;horizontal&quot;:[]}"><defs></defs><path fill="#ffffff" stroke="none" fill-opacity="1" stroke-width="1" stroke-opacity="1" id="tSvgd14b18deac" title="Path 1" d="M94.5485 310.901C97.4982 310.8493 100.7197 310.8428 104.2257 310.8751C107.7447 310.8945 111.5548 310.9398 115.6625 311.0045C117.5384 311.0563 119.395 311.0821 121.2256 311.0821C123.0692 311.0821 124.8869 311.0821 126.6852 311.0821C128.9622 298.7527 129.8549 289.0754 129.3762 282.0504C128.8911 275.0318 126.9957 271.5193 123.6837 271.5193C121.1803 271.5193 118.3535 272.8001 115.1967 275.3488C112.0012 277.9039 108.631 282.0957 105.0796 287.924C103.3201 290.822 101.5606 294.1858 99.8011 298.0153C98.0545 301.8448 96.308 306.14 94.5485 310.901ZM141.1752 311.1339C141.7251 311.1339 142.0162 311.3344 142.055 311.729C142.1067 312.1301 141.9838 312.5247 141.6927 312.9193C141.3822 313.3721 140.9812 313.592 140.5025 313.592C138.4325 313.592 136.3948 313.592 134.396 313.592C132.4101 313.592 130.4759 313.5661 128.6 313.5144C127.565 318.6247 126.5688 323.1852 125.6244 327.2023C124.6929 331.2064 123.826 334.6219 123.0369 337.4488C122.8816 337.9339 122.5776 338.2768 122.1312 338.4838C121.6978 338.6778 121.3162 338.6778 120.9927 338.4838C120.6305 338.3156 120.5076 337.9663 120.6305 337.4488C121.7819 333.1018 122.8299 328.9359 123.7614 324.9511C124.7058 320.9664 125.5209 317.1563 126.1936 313.5144C123.8778 313.482 121.6396 313.4626 119.4661 313.4626C117.2926 313.4626 115.2097 313.4497 113.2302 313.4109C109.4654 313.3268 105.9464 313.275 102.6732 313.2556C99.413 313.2427 96.4244 313.2492 93.7205 313.2815C91.961 318.353 90.2274 324.0843 88.5196 330.4625C88.345 330.9477 88.0409 331.284 87.614 331.4716C87.1612 331.6786 86.786 331.6786 86.4755 331.4716C86.1456 331.3164 86.0097 330.98 86.0615 330.4625C86.8895 327.3963 87.7434 324.4466 88.6231 321.6133C89.5029 318.767 90.3955 316.0113 91.3141 313.3333C84.2244 313.4238 79.9162 313.799 78.4025 314.4718C78.4348 314.5947 78.4866 314.7305 78.5577 314.8858C78.6418 315.0281 78.7259 315.1704 78.8165 315.3256C78.9006 315.4809 78.9976 315.6232 79.1011 315.7396C79.2175 315.8625 79.321 315.966 79.4116 316.0501C79.7739 316.3606 79.8774 316.7164 79.7221 317.111C79.5151 317.5638 79.2111 317.9002 78.8165 318.1201C78.3637 318.3659 77.9432 318.3465 77.5486 318.0684C76.837 317.5185 76.3195 316.7229 75.9961 315.6879C75.718 314.724 76.0349 313.799 76.9535 312.9193C78.3119 311.6126 83.3834 310.9398 92.168 310.901C94.5485 304.277 97.0325 298.4034 99.62 293.2801C102.2204 288.1439 104.9244 283.7452 107.7189 280.0839C113.3079 272.7871 118.8516 269.1388 124.3565 269.1388C126.9052 269.1388 128.7811 270.3743 129.9714 272.8389C131.0905 275.2711 131.7438 278.5443 131.9379 282.6455C132.022 284.6832 132.0155 286.8243 131.912 289.0625C131.8085 291.2878 131.6144 293.6359 131.3427 296.1005C131.0646 298.5845 130.7347 301.0814 130.3595 303.5784C129.9778 306.0624 129.5444 308.5852 129.0657 311.1339C133.1022 311.1339 137.1387 311.1339 141.1752 311.1339"></path><path fill="#ffffff" stroke="none" fill-opacity="1" stroke-width="1" stroke-opacity="1" id="tSvg173bfa971e6" title="Path 2" d="M164.1333 309.9954C164.612 309.6331 165.0389 309.5167 165.4012 309.6331C165.7958 309.8401 166.0092 310.1183 166.048 310.4611C166.0804 310.8234 165.8669 311.2309 165.4012 311.6773C162.846 313.7473 160.6272 315.2998 158.7513 316.3348C156.8689 317.3698 154.9347 317.8873 152.9553 317.8873C150.2255 317.8873 148.5695 316.9558 147.9873 315.0928C147.3016 313.2168 147.3598 310.4223 148.1684 306.7093C148.563 304.8657 149.0352 302.7957 149.5915 300.4993C150.1414 298.2093 150.7947 295.7059 151.558 292.9955C151.7974 292.2063 152.0367 291.3654 152.2825 290.4856C152.5219 289.6059 152.7612 288.7261 153.007 287.8464C153.0717 287.4518 153.1688 287.0637 153.2917 286.682C153.4081 286.3068 153.5116 285.9187 153.6022 285.5176C153.8178 284.7586 154.0334 283.9996 154.249 283.2406C154.456 282.6584 154.7536 282.2768 155.1547 282.1021C155.601 281.9145 155.9956 281.9145 156.3449 282.1021C156.6684 282.3091 156.7719 282.6908 156.6554 283.2406C156.457 283.9996 156.2587 284.7586 156.0603 285.5176C155.9374 285.9187 155.8145 286.3068 155.698 286.682C155.5751 287.0637 155.4716 287.4518 155.3875 287.8464C155.1094 288.8167 154.8506 289.7482 154.6113 290.6409C154.3655 291.54 154.1326 292.4263 153.9127 293.306C153.2723 295.6218 152.703 297.7759 152.2049 299.7748C151.7004 301.7607 151.2734 303.5719 150.9112 305.2085C150.5101 306.8516 150.2643 308.307 150.1608 309.5814C150.0573 310.8622 150.0832 311.936 150.2384 312.8158C150.5619 314.6141 151.6874 315.5068 153.6022 315.5068C154.9994 315.5068 156.4549 315.1057 157.975 314.2906C158.7319 313.896 159.631 313.3462 160.666 312.6346C161.701 311.9101 162.8525 311.0304 164.1333 309.9954Z"></path><path fill="#ffffff" stroke="none" fill-opacity="1" stroke-width="1" stroke-opacity="1" id="tSvg757feb254a" title="Path 3" d="M169.5136 310.2283C168.6338 310.0407 167.7347 310.2218 166.8226 310.7716ZM181.5454 309.9436C182.0241 309.5814 182.4381 309.4779 182.7874 309.6331C183.1109 309.7884 183.292 310.0924 183.3308 310.5388C183.3308 310.9722 183.0979 311.3668 182.6322 311.729C177.1596 315.8367 172.0558 317.8873 167.3142 317.8873C165.2248 317.8873 163.7887 317.4344 162.9931 316.5159C162.2362 315.6361 162.0745 314.4394 162.5014 312.9193C163.0707 311.2115 164.0669 309.9372 165.5029 309.0898C166.2274 308.6628 166.939 308.3329 167.6506 308.1065C168.3751 307.8866 169.0737 307.7572 169.7464 307.7184C171.1049 307.7184 171.9458 308.2359 172.2563 309.2709C172.4245 310.3964 171.8294 311.3797 170.4709 312.2206C169.0025 313.0486 167.1331 313.3268 164.8561 313.0486C164.7655 313.4109 164.7849 313.7343 164.9078 314.006C164.9402 314.3165 165.1795 314.6399 165.6323 314.9634C166.0593 315.2739 166.6997 315.455 167.5471 315.5068C171.4413 315.7849 176.1117 313.9284 181.5454 309.9436Z"></path><path fill="#ffffff" stroke="none" fill-opacity="1" stroke-width="1" stroke-opacity="1" id="tSvga7ffb9ad71" title="Path 4" d="M192.1928 304.6651C191.0025 304.6651 189.767 305.2473 188.4926 306.3988C187.1601 307.5567 185.9828 308.8569 184.9478 310.3059C186.7396 309.6719 188.2986 308.928 189.6311 308.0806C191.009 307.2397 191.9664 306.4634 192.5033 305.7519C193.0531 305.0274 192.9496 304.6651 192.1928 304.6651ZM202.491 309.9436C202.918 309.549 203.3578 309.4003 203.8106 309.5038C204.2052 309.7108 204.4187 309.9824 204.4575 310.3059C204.4899 310.7069 204.2893 311.1209 203.8624 311.5479C201.6695 313.3785 199.6965 314.7564 197.937 315.6879C196.2293 316.5676 194.6509 317.1628 193.2019 317.4733C192.4903 317.6285 191.8305 317.7449 191.2095 317.8096C190.5885 317.8614 189.9999 317.8873 189.45 317.8873C188.0528 317.8873 186.7461 317.6285 185.5429 317.111C184.3138 316.5935 183.4017 315.7396 182.8001 314.5494C182.1274 317.2921 181.5711 319.6209 181.1441 321.5356C180.6978 323.4504 180.3679 324.9705 180.1609 326.0896C180.0445 326.6071 179.7663 326.9694 179.3329 327.1764C178.8865 327.4222 178.479 327.4545 178.1168 327.2799C177.7739 327.1634 177.6187 326.84 177.651 326.3225C177.9615 324.6859 178.4725 322.3895 179.1776 319.4398C179.8698 316.49 180.7754 312.8869 181.8945 308.624C183.0136 304.3482 184.1456 300.0982 185.2841 295.8676C186.4226 291.6435 187.5482 287.4324 188.6738 283.2406C188.8614 282.6908 189.1525 282.335 189.5535 282.1798C189.9999 281.9728 190.3945 281.9728 190.7438 282.1798C191.0672 282.3738 191.1707 282.7231 191.0543 283.2406C190.0516 287.0378 189.0231 290.9255 187.9751 294.9103C186.9207 298.895 185.834 302.9833 184.7149 307.175C185.2647 306.5023 185.8663 305.8813 186.5261 305.312C187.1989 304.7298 187.8716 304.1929 188.5444 303.7078C189.9416 302.7633 191.3712 302.2846 192.8396 302.2846C194.6315 302.2846 195.4918 302.925 195.4271 304.1994C195.3883 305.4284 194.4956 306.858 192.7361 308.4946C191.009 310.0989 188.428 311.4832 184.9995 312.6346C185.2906 313.5144 185.7887 314.1548 186.5003 314.5494C187.1342 314.9504 187.8328 315.1833 188.5961 315.248C189.3206 315.3709 189.8187 315.4291 190.0969 315.4291C191.009 315.4291 192.0699 315.3192 193.2795 315.0928C194.431 314.8534 195.7894 314.3294 197.3419 313.5144C198.8944 312.7252 200.6086 311.5349 202.491 309.9436Z"></path><path fill="#ffffff" stroke="none" fill-opacity="1" stroke-width="1" stroke-opacity="1" id="tSvg67e8529169" title="Path 5" d="M207.819 322.4413C208.246 321.9238 208.3236 321.3933 208.0519 320.837C207.8967 320.5136 207.7414 320.216 207.5862 319.9573C207.4439 319.6985 207.2821 319.4656 207.0945 319.2586C206.7646 319.4333 206.4024 319.6597 206.0078 319.9314C205.6067 320.2095 205.1927 320.5136 204.7658 320.837C204.2806 321.1475 203.8214 321.4839 203.3944 321.8461C202.9804 322.2084 202.5729 322.5642 202.1783 322.907C201.4214 323.6315 201.0074 324.2978 200.9363 324.8994C200.9751 325.4169 201.6479 325.5592 202.9545 325.3134C204.2806 325.074 205.9043 324.1167 207.819 322.4413ZM223.965 309.4003C224.4825 309.245 224.8577 309.3097 225.1035 309.5814C225.2911 309.8919 225.3235 310.2735 225.207 310.7199C225.013 311.1856 224.6637 311.5091 224.1462 311.6773C221.4681 312.5958 218.9194 313.5791 216.4872 314.627C214.0549 315.6814 211.7391 316.794 209.5527 317.9649C210.2578 318.9158 210.6394 319.8926 210.6912 320.8888C210.7235 321.9626 210.2384 322.9976 209.2422 323.9938C206.4089 326.4648 203.899 327.7392 201.7125 327.8233C199.5067 327.8621 198.4005 327.0405 198.4005 325.3651C198.5752 323.9032 199.4549 322.4671 201.0398 321.0699C202.5276 319.7114 204.0542 318.5729 205.6455 317.6544C205.5226 317.5379 205.3997 317.415 205.2833 317.2921C205.1604 317.1757 205.0245 317.0528 204.8693 316.9299C204.4682 316.5353 204.1189 316.1536 203.8084 315.7914C203.5109 315.4291 203.2262 315.0928 202.9545 314.7823C201.7125 312.9581 201.9131 311.0239 203.5497 308.9863C204.824 307.589 206.4218 306.5475 208.3365 305.8554C210.2125 305.1826 211.7779 305.0727 213.0199 305.519C214.2943 305.9524 214.7341 307.0198 214.3395 308.7275C214.1649 309.2127 213.8609 309.5555 213.4339 309.7625C212.9811 309.9566 212.6059 309.9566 212.2954 309.7625C211.9332 309.5943 211.8103 309.245 211.9332 308.7275C212.0496 308.0224 211.7132 307.6666 210.924 307.6666C210.0766 307.6666 209.1193 307.9124 208.0519 308.3911C206.9264 308.8569 206.0337 309.452 205.3609 310.1765C205.031 310.487 204.8046 310.8881 204.6882 311.3668C204.5653 311.8519 204.727 312.4276 205.1798 313.1004C205.3674 313.3785 205.6003 313.6826 205.8784 314.006C206.1695 314.3165 206.5124 314.6529 206.9134 315.0151C207.101 315.2221 207.3015 315.4421 207.5085 315.662C207.7155 315.869 207.9096 316.076 208.1037 316.283C212.69 313.7343 217.975 311.4379 223.965 309.4003Z"></path><path fill="#ffffff" stroke="none" fill-opacity="1" stroke-width="1" stroke-opacity="1" id="tSvgcb7b13aeb9" title="Path 6" d="M244.0774 310.1248C244.472 309.7108 244.886 309.5684 245.3194 309.6849C245.6817 309.8078 245.921 310.0471 246.0439 310.4094C246.1086 310.8104 245.9275 311.2309 245.5005 311.6773C240.9077 315.8173 237.0394 317.8873 233.8827 317.8873C232.6018 317.8873 231.5668 317.6156 230.7777 317.0593C230.0143 316.49 229.5421 315.5973 229.3545 314.3683C227.595 316.7164 225.9714 317.8873 224.49 317.8873C222.9375 317.8873 222.1031 317.0528 221.9802 315.3774C221.9802 313.9154 222.4071 312.4988 223.248 311.1339C224.0049 309.7754 224.9623 308.7987 226.1202 308.21C227.2716 307.6084 228.2937 307.7443 229.1734 308.624C229.4451 308.9345 229.4839 309.3162 229.2769 309.7625C229.0311 310.1636 228.6947 310.4547 228.2678 310.6423C227.8344 310.8493 227.4527 310.791 227.1293 310.4611C226.8511 310.2412 226.5148 310.3576 226.1202 310.8234C225.7191 311.3085 225.3568 311.9101 225.0334 312.6346C224.6712 313.3979 224.49 314.0707 224.49 314.6529C224.49 314.8987 224.5288 315.0928 224.6194 315.248C224.7035 315.3709 224.807 315.4291 224.9299 315.4291C224.9623 315.4809 225.0399 315.5068 225.1628 315.5068C225.318 315.5068 225.5897 315.3256 225.9908 314.9634C226.353 314.6917 226.9093 314.0319 227.6727 312.9969C228.4295 312.0007 229.3093 310.5776 230.3119 308.7275C230.5513 308.2618 230.8682 307.9707 231.2693 307.8478C231.6962 307.7313 232.052 307.7443 232.3302 307.8995C232.6018 308.0548 232.7053 308.417 232.6407 308.9863C232.5975 309.107 232.5544 309.2278 232.5113 309.3485C232.0261 310.901 231.8127 312.2336 231.8644 313.3333C231.8644 314.5429 232.576 315.2415 234.012 315.4291C236.4766 315.6749 239.8339 313.9025 244.0774 310.1248Z"></path><path fill="#ffffff" stroke="none" fill-opacity="1" stroke-width="1" stroke-opacity="1" id="tSvg191aa90a32c" title="Path 7" d="M270.5065 309.866C271.024 309.5555 271.4445 309.4779 271.7744 309.6331C272.1367 309.7884 272.3307 310.0665 272.3695 310.4611C272.3695 310.8234 272.1237 311.2309 271.645 311.6773C271.451 311.8325 271.2569 311.9813 271.0499 312.1171C270.8429 312.2594 270.6424 312.4018 270.4548 312.557C268.8505 313.799 267.1169 315.0022 265.2539 316.1536C263.3715 317.3115 261.612 317.8873 259.9754 317.8873C258.7334 317.8873 257.8537 317.6285 257.3362 317.111C256.8187 316.5935 256.4952 315.9596 256.3788 315.1963C256.2559 314.4071 256.2235 313.7084 256.2753 313.1004C256.2753 311.9813 256.1977 311.2503 256.0424 310.901C255.8678 310.5388 255.5055 310.3576 254.9557 310.3576C253.7654 310.3576 252.2905 311.0757 250.531 312.5053C248.7327 313.9931 246.9409 315.6038 245.149 317.3439C244.3857 318.0684 243.7518 318.3271 243.2343 318.1201C242.7168 317.9649 242.4775 317.5121 242.5098 316.7488C242.5486 316.4383 242.6004 316.0695 242.665 315.6361C242.7168 315.1898 242.8203 314.7046 242.9755 314.1871C243.1502 313.6179 243.299 313.068 243.4154 312.5311C243.5189 312.0007 243.6612 311.4703 243.8294 310.9528C244.0235 310.28 244.1981 309.6849 244.3728 309.1674C244.5604 308.5981 244.8515 308.2359 245.2525 308.0806C245.6989 307.8736 246.1064 307.8736 246.4687 308.0806C246.7792 308.2876 246.8697 308.6499 246.7533 309.1674C246.7145 309.3938 246.6498 309.6525 246.5463 309.9436C246.4428 310.2218 246.3522 310.5129 246.2875 310.8234C246.1129 311.3409 245.9576 311.8972 245.8218 312.4794C245.6795 313.0486 245.5372 313.6179 245.3819 314.1871C246.294 313.3074 247.1932 312.5182 248.0729 311.8066C248.9527 311.0821 249.8324 310.4029 250.7122 309.7625C252.4523 308.5593 254.0824 307.9513 255.6025 307.9513C256.6893 307.9513 257.4267 308.1971 257.8278 308.6758C258.2547 309.1933 258.5329 309.7754 258.6558 310.4094C258.7075 310.7716 258.7399 311.1274 258.7593 311.4703C258.7722 311.8002 258.7658 312.1301 258.7334 312.4535C258.7334 313.6438 258.8693 314.4394 259.1474 314.834C259.3868 315.2868 259.8849 315.5068 260.6482 315.5068C261.8384 315.5068 263.2486 314.9893 264.8917 313.9543C266.4765 312.9063 267.932 311.8584 269.2645 310.8234C269.4521 310.6681 269.6591 310.5129 269.8855 310.3576C270.1055 310.2024 270.3125 310.0407 270.5065 309.866Z"></path><path fill="#ffffff" stroke="none" fill-opacity="1" stroke-width="1" stroke-opacity="1" id="tSvgae43035c48" title="Path 8" d="M294.3136 309.7625C294.7082 309.3679 295.1287 309.2321 295.5815 309.3485C296.0084 309.452 296.2542 309.6849 296.306 310.0471C296.3707 310.4999 296.209 310.9204 295.8144 311.315C294.9346 312.1948 294.0096 313.0098 293.0457 313.7473C292.0948 314.4718 291.1181 315.1833 290.1219 315.869C288.1683 317.2145 286.0983 317.8873 283.9119 317.8873C282.3917 317.8873 281.3114 317.4474 280.6775 316.5676C280.0694 315.7396 279.7331 314.6141 279.6684 313.178C279.6166 311.7808 279.7331 310.3447 280.0306 308.8569C278.6334 311.5673 277.2361 313.7408 275.8389 315.3774C274.3511 317.0528 272.8762 317.8873 271.4142 317.8873C269.9006 317.8873 269.0984 316.8975 269.0079 314.9116C269.0984 313.1521 269.5512 311.5738 270.3792 310.1765C271.2202 308.8181 272.2034 307.9513 273.329 307.589C274.3963 307.2462 275.3084 307.6666 276.0717 308.8569C276.2787 309.342 276.2335 309.7366 275.9424 310.0471C275.6642 310.4482 275.3084 310.7069 274.8815 310.8234C274.4287 310.9463 274.0664 310.8104 273.7947 310.4094C273.6007 310.0989 273.3872 310.0407 273.1479 310.2283C272.8697 310.3835 272.6304 310.7328 272.4234 311.2633C272.3005 311.5414 272.1905 311.8066 272.087 312.0654C271.9835 312.3241 271.8929 312.5958 271.8282 312.8675C271.7377 313.1457 271.6795 313.3979 271.6471 313.6179C271.6083 313.8443 271.5695 314.0513 271.5177 314.2389C271.5177 314.3941 271.5242 314.5364 271.5436 314.6529C271.576 314.7758 271.6083 314.9246 271.6471 315.0928C271.6795 315.3709 271.8153 315.5068 272.0611 315.5068C273.2514 315.5068 274.6486 314.1095 276.2529 311.315C277.8895 308.5593 279.442 305.2603 280.9104 301.4308C281.6672 299.5678 282.3852 297.7436 283.058 295.9453C283.7437 294.134 284.3647 292.3745 284.921 290.6668C285.4902 288.9978 285.9625 287.5618 286.3441 286.3715C286.7193 285.1683 287.0039 284.2239 287.198 283.5511C287.405 282.8784 287.7414 282.4256 288.2071 282.1798C288.6535 281.9404 289.0351 281.9404 289.3456 282.1798C289.6691 282.4579 289.7596 282.9172 289.6044 283.5511C289.1192 285.2589 288.6211 286.9925 288.1036 288.752C287.5861 290.5115 287.0427 292.271 286.4735 294.0305C285.2832 297.86 284.2612 301.3919 283.4202 304.6134C282.5017 307.8413 282.0877 310.4547 282.1782 312.4535C282.1782 314.4912 282.9674 315.5068 284.5587 315.5068C286.0401 315.5068 287.5408 315.0087 289.061 314.006C289.8502 313.4885 290.6782 312.8869 291.545 312.1948C292.4053 311.4897 293.3304 310.6811 294.3136 309.7625Z"></path><path fill="#ffffff" stroke="none" fill-opacity="1" stroke-width="1" stroke-opacity="1" id="tSvg190ae808c07" title="Path 9" d="M314.0181 309.6849C314.5356 309.4132 314.9496 309.3744 315.2601 309.5814C315.5836 309.8272 315.7518 310.1442 315.7518 310.5388C315.6612 311.0239 315.3766 311.4056 314.8979 311.6773C313.0349 312.7123 311.0555 313.4497 308.9725 313.8766C306.812 314.3294 305.2012 314.4329 304.1339 314.1871C303.1636 313.9478 302.5102 313.4885 302.1674 312.8158C301.9604 312.4923 301.7857 312.1624 301.6499 311.8325C301.5076 311.4897 301.3976 311.1533 301.3135 310.8234C301.2747 310.6681 301.2359 310.5258 301.1841 310.3835C301.1453 310.2477 301.113 310.1377 301.0806 310.0471C300.9901 309.8595 300.8736 309.7625 300.7184 309.7625C300.4402 309.7625 300.0845 310.0601 299.6575 310.6423C299.2953 311.2503 298.9136 311.9295 298.519 312.6864C298.105 313.4497 297.7816 314.0836 297.5616 314.6011C297.1476 315.6749 296.7207 316.5094 296.2938 317.111C295.8927 317.7514 295.3364 318.0684 294.6119 318.0684C293.6157 318.0684 293.1758 317.3568 293.2923 315.9208C293.3828 314.4912 293.8615 312.1948 294.7413 309.038C294.8965 308.5205 295.2135 308.1583 295.6986 307.9513C296.0932 307.796 296.4749 307.796 296.8371 307.9513C297.1476 308.1259 297.2641 308.4882 297.1994 309.038C297.0247 309.5555 296.876 310.0342 296.7595 310.4611C296.656 310.8751 296.559 311.2827 296.4749 311.6773C297.0247 310.5905 297.7234 309.5749 298.5708 308.624C299.36 307.7831 300.3044 307.3561 301.3911 307.3561C302.3032 307.3561 302.8984 307.6019 303.1765 308.0806C303.4482 308.514 303.6487 309.0768 303.7716 309.7625C303.8557 310.0083 303.9334 310.2412 304.0045 310.4611C304.0886 310.6681 304.1727 310.8751 304.2633 311.0821C304.4185 311.4832 304.7549 311.7419 305.2724 311.8584C306.0616 312.0136 307.3424 311.9101 309.1019 311.5479C309.9299 311.3926 310.745 311.1598 311.56 310.8493C312.388 310.5258 313.2031 310.1377 314.0181 309.6849Z"></path><path fill="#ffffff" stroke="none" fill-opacity="1" stroke-width="1" stroke-opacity="1" id="tSvg7247142d7" title="Path 10" d="M334.4201 310.1248C334.8147 309.7108 335.2287 309.5684 335.6621 309.6849C336.0244 309.8078 336.2637 310.0471 336.3866 310.4094C336.4513 310.8104 336.2702 311.2309 335.8432 311.6773C331.2504 315.8173 327.3821 317.8873 324.2254 317.8873C322.9446 317.8873 321.9096 317.6156 321.1204 317.0593C320.3571 316.49 319.8848 315.5973 319.6972 314.3683C317.9377 316.7164 316.3141 317.8873 314.8327 317.8873C313.2802 317.8873 312.4458 317.0528 312.3229 315.3774C312.3229 313.9154 312.7498 312.4988 313.5907 311.1339C314.3476 309.7754 315.305 308.7987 316.4629 308.21C317.6143 307.6084 318.6364 307.7443 319.5161 308.624C319.7878 308.9345 319.8266 309.3162 319.6196 309.7625C319.3738 310.1636 319.0374 310.4547 318.6105 310.6423C318.1771 310.8493 317.7954 310.791 317.472 310.4611C317.1938 310.2412 316.8575 310.3576 316.4629 310.8234C316.0618 311.3085 315.6996 311.9101 315.3761 312.6346C315.0139 313.3979 314.8327 314.0707 314.8327 314.6529C314.8327 314.8987 314.8716 315.0928 314.9621 315.248C315.0462 315.3709 315.1497 315.4291 315.2726 315.4291C315.305 315.4809 315.3826 315.5068 315.5055 315.5068C315.6607 315.5068 315.9324 315.3256 316.3335 314.9634C316.6957 314.6917 317.2521 314.0319 318.0154 312.9969C318.7722 312.0007 319.652 310.5776 320.6546 308.7275C320.894 308.2618 321.2109 307.9707 321.612 307.8478C322.0389 307.7313 322.3947 307.7443 322.6729 307.8995C322.9446 308.0548 323.0481 308.417 322.9834 308.9863C322.9402 309.107 322.8971 309.2278 322.854 309.3485C322.3688 310.901 322.1554 312.2336 322.2071 313.3333C322.2071 314.5429 322.9187 315.2415 324.3547 315.4291C326.8193 315.6749 330.1766 313.9025 334.4201 310.1248Z"></path><path fill="#ffffff" stroke="none" fill-opacity="1" stroke-width="1" stroke-opacity="1" id="tSvg93629493b3" title="Path 11" d="M416.4935 336.0256C417.0627 336.0256 417.3603 336.2262 417.3991 336.6208C417.4314 337.0218 417.3085 337.4164 417.0368 337.811C416.7587 338.2121 416.3641 338.4061 415.8466 338.4061C409.7724 338.4579 404.2934 338.4449 399.416 338.3544C394.532 338.2703 390.2368 338.1474 386.5302 337.9921C382.7654 337.8369 379.544 337.5393 376.853 337.0865C374.162 336.6208 371.9626 336.0127 370.2548 335.2494C366.8523 333.7357 365.1704 331.2776 365.2092 327.875C365.4162 324.4078 367.732 320.4683 372.1696 316.0501C374.3948 313.8119 376.8788 311.5091 379.6216 309.1415C382.3773 306.761 385.4176 304.3546 388.7296 301.9224C392.0416 299.4901 395.3406 297.1032 398.6397 294.755C401.9323 292.3939 405.2378 290.0716 408.5498 287.7946C410.6522 286.3133 412.6704 284.8902 414.6046 283.5253C416.5323 282.1474 418.3823 280.8213 420.1418 279.5405C423.7255 276.9013 425.8085 275.1418 426.3777 274.262C426.1319 273.434 423.7385 272.7224 419.1845 272.1144C414.6434 271.5645 408.4463 271.4416 400.5803 271.7521C397.0743 271.9591 394.034 272.2308 391.4465 272.5543C388.8719 272.8648 386.7695 273.2205 385.133 273.6151C381.8727 274.3784 380.1391 275.0318 379.9321 275.5816C379.7768 276.0668 379.4793 276.4096 379.0523 276.6166C378.5995 276.8107 378.2243 276.8107 377.9138 276.6166C377.5839 276.4484 377.4351 276.0991 377.474 275.5816C377.9915 274.0679 379.7315 272.8518 382.7007 271.9333C384.1303 271.5063 385.6763 271.1311 387.3323 270.8206C388.9883 270.4972 390.7284 270.2255 392.5591 270.0185C396.2657 269.5916 399.6812 269.3458 402.8056 269.294C404.3581 269.2617 405.6065 269.2358 406.5575 269.2164C407.5213 269.2034 408.2005 269.1905 408.6016 269.1905C411.4284 269.1905 414.0224 269.2681 416.39 269.4234C418.7705 269.5786 420.8987 269.8244 422.7811 270.1479C424.2948 270.3937 425.7567 270.8077 427.154 271.3899C428.4995 271.9979 429.0558 272.9359 428.8358 274.2103C428.6288 275.3358 427.0634 276.9918 424.1525 279.1783C421.235 281.4553 416.39 284.9225 409.6107 289.58C406.745 291.5853 403.7888 293.6683 400.7356 295.8418C397.6823 298.0153 394.5579 300.2858 391.3688 302.6469C388.1733 304.995 385.1976 307.3044 382.442 309.5814C379.6992 311.8584 377.1893 314.0966 374.9123 316.283C370.3195 320.63 367.9261 324.2784 367.7191 327.2281C367.6156 331.4199 371.4063 333.9556 379.1041 334.8354C382.9336 335.3011 387.9533 335.6375 394.1633 335.8445C400.3863 336.0515 407.8318 336.1162 416.4935 336.0256Z"></path><path fill="#ffffff" stroke="none" fill-opacity="1" stroke-width="1" stroke-opacity="1" id="tSvgdaf219ddeb" title="Path 12" d="M439.7801 310.1248C440.1747 309.7108 440.5887 309.5684 441.0221 309.6849C441.3844 309.8078 441.6237 310.0471 441.7466 310.4094C441.8113 310.8104 441.6302 311.2309 441.2033 311.6773C436.6105 315.8173 432.7421 317.8873 429.5854 317.8873C428.3046 317.8873 427.2696 317.6156 426.4804 317.0593C425.7171 316.49 425.2449 315.5973 425.0573 314.3683C423.2978 316.7164 421.6741 317.8873 420.1928 317.8873C418.6403 317.8873 417.8058 317.0528 417.6829 315.3774C417.6829 313.9154 418.1098 312.4988 418.9508 311.1339C419.7076 309.7754 420.665 308.7987 421.8229 308.21C422.9743 307.6084 423.9964 307.7443 424.8761 308.624C425.1478 308.9345 425.1866 309.3162 424.9796 309.7625C424.7338 310.1636 424.3975 310.4547 423.9705 310.6423C423.5371 310.8493 423.1555 310.791 422.832 310.4611C422.5539 310.2412 422.2175 310.3576 421.8229 310.8234C421.4218 311.3085 421.0596 311.9101 420.7361 312.6346C420.3739 313.3979 420.1928 314.0707 420.1928 314.6529C420.1928 314.8987 420.2316 315.0928 420.3221 315.248C420.4062 315.3709 420.5097 315.4291 420.6326 315.4291C420.665 315.4809 420.7426 315.5068 420.8655 315.5068C421.0208 315.5068 421.2925 315.3256 421.6935 314.9634C422.0558 314.6917 422.6121 314.0319 423.3754 312.9969C424.1322 312.0007 425.012 310.5776 426.0146 308.7275C426.254 308.2618 426.571 307.9707 426.972 307.8478C427.399 307.7313 427.7547 307.7443 428.0329 307.8995C428.3046 308.0548 428.4081 308.417 428.3434 308.9863C428.3003 309.107 428.2571 309.2278 428.214 309.3485C427.7289 310.901 427.5154 312.2336 427.5671 313.3333C427.5671 314.5429 428.2787 315.2415 429.7148 315.4291C432.1794 315.6749 435.5366 313.9025 439.7801 310.1248Z"></path><path fill="#ffffff" stroke="none" fill-opacity="1" stroke-width="1" stroke-opacity="1" id="tSvg1a82139708" title="Path 13" d="M482.2517 288.1051C482.8533 288.1051 483.1703 288.3057 483.2091 288.7003C483.2932 289.1337 483.1897 289.5283 482.8986 289.8905C482.6204 290.2916 482.2064 290.4856 481.6566 290.4856C470.3234 290.4856 458.9901 290.4856 447.6569 290.4856C446.5787 294.4359 445.5006 298.3861 444.4225 302.3364C442.5918 309.0833 441.1169 314.627 439.9979 318.974C438.8788 323.321 438.1025 326.4713 437.6691 328.4184C437.585 328.9035 437.5139 329.324 437.4621 329.6863C437.3974 330.0485 437.3586 330.3461 437.3586 330.566C437.3586 331.0188 437.4233 331.3358 437.5397 331.5234C437.6626 331.698 437.8244 331.7821 438.0314 331.7821C438.5877 331.7821 438.8852 331.9827 438.937 332.3773C439.0081 332.8624 438.9046 333.2764 438.6265 333.6193C438.3548 334.0333 437.9279 334.2403 437.3586 334.2403C436.0131 334.2403 435.2369 333.6969 435.0299 332.6101C434.8746 331.5751 434.9393 330.2555 435.211 328.6513C435.9031 325.0676 438.1801 316.2959 442.042 302.3364C442.5207 300.5769 443.0317 298.7139 443.5686 296.7474C444.099 294.7679 444.6424 292.6785 445.1987 290.4856C439.834 290.4856 434.4692 290.4856 429.1045 290.4856C428.6775 290.4856 428.4447 290.2916 428.4059 289.8905C428.3541 289.4959 428.4705 289.1013 428.7422 288.7003C428.988 288.3057 429.3632 288.1051 429.8807 288.1051C435.211 288.1051 440.5412 288.1051 445.8715 288.1051C446.389 286.1386 446.9194 284.1139 447.4757 282.0245C448.045 279.9222 448.6466 277.7422 449.287 275.4781C449.4746 274.9089 449.7657 274.5466 450.1667 274.3914C450.6131 274.1844 451.0206 274.1844 451.3829 274.3914C451.6934 274.5984 451.7839 274.9606 451.6675 275.4781C451.0788 277.7422 450.5031 279.9222 449.9339 282.0245C449.3775 284.1139 448.8471 286.1386 448.3296 288.1051C459.637 288.1051 470.9444 288.1051 482.2517 288.1051"></path><path fill="#ffffff" stroke="none" fill-opacity="1" stroke-width="1" stroke-opacity="1" id="tSvgbf0181250" title="Path 14" d="M453.7043 310.2283C452.8245 310.0407 451.9254 310.2218 451.0133 310.7716ZM465.7362 309.9436C466.2148 309.5814 466.6288 309.4779 466.9782 309.6331C467.3016 309.7884 467.4827 310.0924 467.5215 310.5388C467.5215 310.9722 467.2887 311.3668 466.8229 311.729C461.3503 315.8367 456.2465 317.8873 451.5049 317.8873C449.4155 317.8873 447.9794 317.4344 447.1838 316.5159C446.4269 315.6361 446.2652 314.4394 446.6922 312.9193C447.2614 311.2115 448.2576 309.9372 449.6937 309.0898C450.4182 308.6628 451.1297 308.3329 451.8413 308.1065C452.5658 307.8866 453.2644 307.7572 453.9372 307.7184C455.2956 307.7184 456.1365 308.2359 456.447 309.2709C456.6152 310.3964 456.0201 311.3797 454.6617 312.2206C453.1932 313.0486 451.3238 313.3268 449.0468 313.0486C448.9562 313.4109 448.9756 313.7343 449.0985 314.006C449.1309 314.3165 449.3702 314.6399 449.823 314.9634C450.25 315.2739 450.8904 315.455 451.7378 315.5068C455.632 315.7849 460.3024 313.9284 465.7362 309.9436Z"></path><path fill="#ffffff" stroke="none" fill-opacity="1" stroke-width="1" stroke-opacity="1" id="tSvg14922dbe0a0" title="Path 15" d="M471.2344 310.2283C470.3546 310.0407 469.4555 310.2218 468.5434 310.7716ZM483.2663 309.9436C483.7449 309.5814 484.1589 309.4779 484.5083 309.6331C484.8317 309.7884 485.0128 310.0924 485.0516 310.5388C485.0516 310.9722 484.8188 311.3668 484.353 311.729C478.8804 315.8367 473.7766 317.8873 469.035 317.8873C466.9456 317.8873 465.5095 317.4344 464.7139 316.5159C463.957 315.6361 463.7953 314.4394 464.2223 312.9193C464.7915 311.2115 465.7877 309.9372 467.2238 309.0898C467.9483 308.6628 468.6598 308.3329 469.3714 308.1065C470.0959 307.8866 470.7945 307.7572 471.4673 307.7184C472.8257 307.7184 473.6666 308.2359 473.9771 309.2709C474.1453 310.3964 473.5502 311.3797 472.1918 312.2206C470.7234 313.0486 468.8539 313.3268 466.5769 313.0486C466.4863 313.4109 466.5057 313.7343 466.6286 314.006C466.661 314.3165 466.9003 314.6399 467.3531 314.9634C467.7801 315.2739 468.4205 315.455 469.2679 315.5068C473.1621 315.7849 477.8325 313.9284 483.2663 309.9436Z"></path><path fill="#ffffff" stroke="none" fill-opacity="1" stroke-width="1" stroke-opacity="1" id="tSvg828a6a1644" title="Path 16" d="M505.4538 309.8143C506.023 309.5038 506.4629 309.4261 506.7734 309.5814C507.0968 309.7754 507.265 310.0665 507.265 310.4611C507.265 310.9139 507.0063 311.315 506.4888 311.6773C502.8469 314.1095 499.2502 315.3256 495.6989 315.3256C493.9006 315.3256 492.6521 314.8081 491.947 313.7731C491.947 313.7473 491.947 313.7214 491.947 313.6955C491.9211 313.6783 491.8953 313.661 491.8694 313.6438C490.9896 314.834 490.0323 315.869 488.9973 316.7488C488.014 317.6285 487.0178 318.0684 486.0216 318.0684C484.812 318.0684 483.9775 317.5379 483.5118 316.4641C483.0331 315.345 482.8067 314.0836 482.839 312.6864C482.9296 311.2568 483.1883 309.9372 483.6153 308.7275C483.8223 308.2618 484.1651 307.9254 484.6503 307.7184C485.0449 307.6019 485.4006 307.6408 485.7111 307.8478C486.0346 308.1259 486.1122 308.5205 485.944 309.038C485.7888 309.4714 485.6723 309.9307 485.6076 310.4094C485.5559 310.8945 485.5106 311.3926 485.4783 311.9101C485.4395 312.9128 485.5041 313.7667 485.6594 314.4718C485.8146 315.2351 486.151 315.6103 486.6685 315.6103C487.0631 315.6103 487.6259 315.2609 488.3504 314.5494C489.0749 313.9154 489.7735 313.0486 490.4463 311.9619C491.0802 310.9657 491.5589 309.9113 491.8694 308.8051C492.0764 308.2876 492.374 307.9448 492.775 307.7701C493.2537 307.5825 493.6548 307.5631 493.9653 307.7184C494.2887 307.9254 494.3922 308.307 494.2758 308.8569C494.2758 308.9474 494.2564 309.0251 494.224 309.0898C494.1723 309.2644 494.1076 309.4714 494.0429 309.7108C493.9911 309.9372 493.9459 310.2153 493.9135 310.5388C493.7906 311.1792 493.8682 311.6967 494.1464 312.0913C494.5086 312.6476 495.2461 312.9193 496.3716 312.9193C499.4055 312.9193 502.4329 311.8843 505.4538 309.8143Z"></path><path fill="#ffffff" stroke="none" fill-opacity="1" stroke-width="1" stroke-opacity="1" id="tSvg18971f76105" title="Path 17" d="M525.8749 310.1248C526.2695 309.7108 526.6835 309.5684 527.1169 309.6849C527.4792 309.8078 527.7185 310.0471 527.8414 310.4094C527.9061 310.8104 527.725 311.2309 527.298 311.6773C522.7052 315.8173 518.8369 317.8873 515.6802 317.8873C514.3993 317.8873 513.3643 317.6156 512.5752 317.0593C511.8118 316.49 511.3396 315.5973 511.152 314.3683C509.3925 316.7164 507.7689 317.8873 506.2875 317.8873C504.735 317.8873 503.9006 317.0528 503.7777 315.3774C503.7777 313.9154 504.2046 312.4988 505.0455 311.1339C505.8024 309.7754 506.7598 308.7987 507.9177 308.21C509.0691 307.6084 510.0912 307.7443 510.9709 308.624C511.2426 308.9345 511.2814 309.3162 511.0744 309.7625C510.8286 310.1636 510.4922 310.4547 510.0653 310.6423C509.6319 310.8493 509.2502 310.791 508.9268 310.4611C508.6486 310.2412 508.3123 310.3576 507.9177 310.8234C507.5166 311.3085 507.1543 311.9101 506.8309 312.6346C506.4687 313.3979 506.2875 314.0707 506.2875 314.6529C506.2875 314.8987 506.3263 315.0928 506.4169 315.248C506.501 315.3709 506.6045 315.4291 506.7274 315.4291C506.7598 315.4809 506.8374 315.5068 506.9603 315.5068C507.1155 315.5068 507.3872 315.3256 507.7883 314.9634C508.1505 314.6917 508.7068 314.0319 509.4702 312.9969C510.227 312.0007 511.1068 310.5776 512.1094 308.7275C512.3488 308.2618 512.6657 307.9707 513.0668 307.8478C513.4937 307.7313 513.8495 307.7443 514.1277 307.8995C514.3993 308.0548 514.5028 308.417 514.4382 308.9863C514.395 309.107 514.3519 309.2278 514.3088 309.3485C513.8236 310.901 513.6102 312.2336 513.6619 313.3333C513.6619 314.5429 514.3735 315.2415 515.8095 315.4291C518.2741 315.6749 521.6314 313.9025 525.8749 310.1248Z"></path><path fill="#ffffff" stroke="#ffffff" fill-opacity="1" stroke-width="1" stroke-opacity="1" id="tSvg18766ae4894" title="Path 18" d="M221.819 355.22C221.8104 355.0562 221.8018 354.8923 221.7932 354.7284C222.0519 354.668 222.3107 354.6077 222.5694 354.5473C222.5824 354.4955 222.5953 354.392 222.5953 354.2368C222.6082 354.0815 222.6212 353.8745 222.6212 353.6158C222.6212 353.3441 222.6212 353.0142 222.6212 352.6325C222.6212 351.8218 222.6212 351.011 222.6212 350.2003C222.6212 349.8251 222.6212 349.4952 222.6212 349.217C222.6212 348.9453 222.6082 348.7254 222.5953 348.5702C222.5953 348.4149 222.5824 348.3243 222.5694 348.2855C222.3107 348.2252 222.0519 348.1648 221.7932 348.1044C221.8018 347.9405 221.8104 347.7767 221.819 347.6128C222.7333 347.6128 223.6475 347.6128 224.5618 347.6128C224.5704 347.7767 224.579 347.9405 224.5877 348.1044C224.3289 348.1648 224.0702 348.2252 223.8114 348.2855C223.792 348.3243 223.7726 348.4084 223.7597 348.5443C223.7403 348.6866 223.7338 348.8936 223.7338 349.1653C223.7338 349.424 223.7338 349.7733 223.7338 350.2003C223.7338 351.011 223.7338 351.8218 223.7338 352.6325C223.7338 353.0465 223.7338 353.3958 223.7338 353.6675C223.7338 353.9263 223.7403 354.1333 223.7597 354.2885C223.7726 354.4308 223.792 354.5149 223.8114 354.5473C224.0702 354.6077 224.3289 354.668 224.5877 354.7284C224.579 354.8923 224.5704 355.0562 224.5618 355.22C223.6475 355.22 222.7333 355.22 221.819 355.22"></path><path fill="#ffffff" stroke="#ffffff" fill-opacity="1" stroke-width="1" stroke-opacity="1" id="tSvg3e4863c452" title="Path 19" d="M235.7042 353.357C235.7042 352.391 235.7042 351.425 235.7042 350.459C235.7042 349.9609 235.6913 349.5534 235.6783 349.2429C235.6783 348.9324 235.6654 348.7125 235.6525 348.5702C235.6525 348.4149 235.6395 348.3243 235.6266 348.2855C235.3333 348.2252 235.0401 348.1648 234.7468 348.1044C234.7641 347.9405 234.7813 347.7767 234.7986 347.6128C235.618 347.6128 236.4373 347.6128 237.2567 347.6128C237.2653 347.7767 237.274 347.9405 237.2826 348.1044C237.0152 348.1648 236.7478 348.2252 236.4805 348.2855C236.4805 348.3243 236.4675 348.4149 236.4546 348.5702C236.4546 348.7125 236.4417 348.9324 236.4287 349.2429C236.4287 349.5534 236.4287 349.9609 236.4287 350.459C236.4287 351.4854 236.4287 352.5118 236.4287 353.5382C236.4287 353.8163 236.4287 354.1009 236.4287 354.392C236.4287 354.6702 236.4287 354.9613 236.4287 355.2718C236.239 355.2718 236.0492 355.2718 235.8595 355.2718C234.2725 353.1328 232.6855 350.9938 231.0985 348.8548C231.1933 348.8548 231.2882 348.8548 231.3831 348.8548C231.3831 350.0105 231.3831 351.1663 231.3831 352.322C231.3831 352.8395 231.3831 353.2535 231.3831 353.564C231.396 353.8745 231.409 354.1074 231.409 354.2627C231.4219 354.4179 231.4413 354.5149 231.4607 354.5473C231.754 354.6077 232.0472 354.668 232.3405 354.7284C232.3232 354.8923 232.306 355.0562 232.2887 355.22C231.4607 355.22 230.6327 355.22 229.8047 355.22C229.7961 355.0562 229.7875 354.8923 229.7788 354.7284C230.0376 354.668 230.2963 354.6077 230.5551 354.5473C230.568 354.5149 230.581 354.4308 230.581 354.2885C230.5939 354.1333 230.6068 353.9004 230.6068 353.5899C230.6198 353.2665 230.6327 352.8395 230.6327 352.322C230.6327 351.5889 230.6327 350.8558 230.6327 350.1227C230.6327 349.7281 230.6198 349.4111 230.6068 349.1653C230.6068 348.9065 230.5939 348.7125 230.581 348.5702C230.581 348.4343 230.568 348.3373 230.5551 348.2855C230.2963 348.2252 230.0376 348.1648 229.7788 348.1044C229.7875 347.9405 229.7961 347.7767 229.8047 347.6128C230.3998 347.6128 230.995 347.6128 231.5901 347.6128C233.0391 349.5275 234.4881 351.4423 235.7042 353.357Z"></path><path fill="#ffffff" stroke="#ffffff" fill-opacity="1" stroke-width="1" stroke-opacity="1" id="tSvg16b1fe40d4c" title="Path 20" d="M248.5547 347.561C248.6496 348.2597 248.7445 348.9583 248.8393 349.6569C248.6496 349.6828 248.4598 349.7087 248.2701 349.7345C248.089 349.2429 247.9078 348.7513 247.7267 348.2597C247.6556 348.2467 247.5779 348.2338 247.4938 348.2338C247.4033 348.2338 247.3257 348.2338 247.261 348.2338C247.1057 348.2338 246.9505 348.2338 246.7952 348.2338C246.7047 348.2338 246.5882 348.2338 246.433 348.2338C246.2907 348.2338 246.1613 348.2338 246.0448 348.2338C246.0448 348.3049 246.0319 348.4667 246.019 348.7254C246.019 348.9842 246.019 349.2882 246.019 349.631C246.019 349.9609 246.019 350.2779 246.019 350.5884C246.019 351.1663 246.019 351.7442 246.019 352.322C246.019 352.8783 246.019 353.3506 246.019 353.7452C246.0319 354.1462 246.0448 354.4114 246.0448 354.5473C246.4157 354.599 246.7866 354.6508 247.1575 354.7025C247.1402 354.875 247.123 355.0475 247.1057 355.22C246.0103 355.22 244.915 355.22 243.8196 355.22C243.811 355.0475 243.8023 354.875 243.7937 354.7025C244.156 354.6508 244.5182 354.599 244.8805 354.5473C244.8805 354.4114 244.8805 354.1462 244.8805 353.7452C244.8934 353.3506 244.9063 352.8783 244.9063 352.322C244.9063 351.7442 244.9063 351.1663 244.9063 350.5884C244.9063 350.2779 244.9063 349.9609 244.9063 349.631C244.9063 349.2882 244.9063 348.9842 244.9063 348.7254C244.9063 348.4667 244.8934 348.3049 244.8805 348.2338C244.777 348.2338 244.6476 348.2338 244.4923 348.2338C244.35 348.2338 244.2401 348.2338 244.156 348.2338C243.9835 348.2338 243.811 348.2338 243.6385 348.2338C243.5673 348.2338 243.4897 348.2338 243.4056 348.2338C243.3344 348.2338 243.2568 348.2467 243.1727 348.2597C243.0002 348.7513 242.8277 349.2429 242.6552 349.7345C242.4568 349.7087 242.2585 349.6828 242.0601 349.6569C242.155 348.9583 242.2498 348.2597 242.3447 347.561C242.4482 347.5804 242.5517 347.5869 242.6552 347.5869C242.7587 347.5869 242.8622 347.5998 242.9657 347.6128C243.0822 347.6128 243.1986 347.6128 243.3021 347.6128C243.4056 347.6128 243.5091 347.6128 243.6126 347.6128C244.846 347.6128 246.0793 347.6128 247.3127 347.6128C247.3968 347.6128 247.4938 347.6128 247.5973 347.6128C247.7138 347.6128 247.8302 347.6128 247.9337 347.6128C248.0372 347.5998 248.1407 347.5869 248.2442 347.5869C248.3477 347.5869 248.4512 347.5804 248.5547 347.561Z"></path><path fill="#ffffff" stroke="#ffffff" fill-opacity="1" stroke-width="1" stroke-opacity="1" id="tSvgb399836a9" title="Path 21" d="M259.3222 355.2977C259.0764 355.2588 258.8564 355.233 258.6494 355.22C258.4554 355.22 258.2742 355.22 258.1061 355.22C256.6312 355.22 255.1563 355.22 253.6814 355.22C253.6642 355.0562 253.6469 354.8923 253.6297 354.7284C253.8971 354.668 254.1644 354.6077 254.4318 354.5473C254.4447 354.4955 254.4577 354.392 254.4577 354.2368C254.4706 354.0815 254.4836 353.8745 254.4836 353.6158C254.4836 353.3441 254.4836 353.0142 254.4836 352.6325C254.4836 351.8218 254.4836 351.011 254.4836 350.2003C254.4836 349.8251 254.4836 349.4952 254.4836 349.217C254.4836 348.9453 254.4706 348.7254 254.4577 348.5702C254.4577 348.4149 254.4447 348.3243 254.4318 348.2855C254.1644 348.2252 253.8971 348.1648 253.6297 348.1044C253.6469 347.9405 253.6642 347.7767 253.6814 347.6128C255.0614 347.6128 256.4414 347.6128 257.8214 347.6128C257.9379 347.6128 258.0672 347.6128 258.2096 347.6128C258.3454 347.6128 258.4942 347.6128 258.6494 347.6128C258.8047 347.5998 258.9599 347.5804 259.1152 347.561C259.2014 348.1303 259.2877 348.6995 259.3739 349.2688C259.1842 349.3033 258.9944 349.3378 258.8047 349.3723C258.6581 349.01 258.5114 348.6478 258.3648 348.2855C258.2936 348.2726 258.216 348.2597 258.1319 348.2597C258.0414 348.2467 257.9573 348.2338 257.8732 348.2338C257.3816 348.2338 256.8899 348.2338 256.3983 348.2338C256.2431 348.2338 256.0943 348.2467 255.9584 348.2597C255.8355 348.2597 255.7126 348.2726 255.5962 348.2855C255.5962 348.3243 255.5962 348.4149 255.5962 348.5702C255.5962 348.7254 255.5832 348.9065 255.5703 349.1135C255.5703 349.3205 255.5703 349.5275 255.5703 349.7345C255.5703 350.8989 255.5703 352.0633 255.5703 353.2277C255.5703 353.4023 255.5703 353.5834 255.5703 353.771C255.5832 353.9457 255.5962 354.1009 255.5962 354.2368C255.5962 354.3597 255.5962 354.4567 255.5962 354.5214C255.732 354.5214 255.8614 354.5343 255.9843 354.5473C256.1201 354.5473 256.2689 354.5473 256.4242 354.5473C256.8468 354.5473 257.2694 354.5473 257.6921 354.5473C257.8796 354.5473 258.0349 354.5473 258.1578 354.5473C258.2742 354.5473 258.3713 354.5473 258.4424 354.5473C258.5071 354.5343 258.5589 354.5149 258.5977 354.4955C258.8219 354.0902 259.0462 353.6848 259.2704 353.2794C259.4688 353.3139 259.6672 353.3484 259.8656 353.3829C259.6844 354.0212 259.5033 354.6594 259.3222 355.2977M257.8991 352.5549C257.8473 352.2617 257.7956 351.9684 257.7438 351.6752C257.6921 351.6622 257.6144 351.6493 257.5109 351.6493C257.4074 351.6363 257.2845 351.6234 257.1487 351.6234C256.8209 351.6234 256.4932 351.6234 256.1654 351.6234C256.0425 351.6234 255.9131 351.6363 255.7773 351.6493C255.6544 351.6493 255.525 351.6622 255.3892 351.6752C255.3892 351.4337 255.3892 351.1922 255.3892 350.9507C255.525 350.9701 255.6544 350.9765 255.7773 350.9765C255.9131 350.9765 256.0425 350.9765 256.1654 350.9765C256.4932 350.9765 256.8209 350.9765 257.1487 350.9765C257.2845 350.9765 257.4074 350.9765 257.5109 350.9765C257.6144 350.9765 257.6921 350.9701 257.7438 350.9507C257.7956 350.6488 257.8473 350.3469 257.8991 350.045C258.0802 350.045 258.2613 350.045 258.4424 350.045C258.4424 350.8817 258.4424 351.7183 258.4424 352.5549C258.2613 352.5549 258.0802 352.5549 257.8991 352.5549"></path><path fill="#ffffff" stroke="#ffffff" fill-opacity="1" stroke-width="1" stroke-opacity="1" id="tSvg7b5a7a3128" title="Path 22" d="M264.8759 355.22C264.8672 355.0562 264.8586 354.8923 264.85 354.7284C265.1174 354.6594 265.3847 354.5904 265.6521 354.5214C265.6521 354.4697 265.6521 354.3856 265.6521 354.2627C265.6521 354.1268 265.6521 353.9716 265.6521 353.7969C265.6521 353.6287 265.6521 353.4476 265.6521 353.2535C265.665 353.0465 265.678 352.8395 265.678 352.6325C265.678 351.8218 265.678 351.011 265.678 350.2003C265.678 349.8057 265.665 349.4758 265.6521 349.217C265.6521 348.9453 265.6392 348.7254 265.6262 348.5702C265.6262 348.4149 265.6262 348.3243 265.6262 348.2855C265.3589 348.2252 265.0915 348.1648 264.8241 348.1044C264.8327 347.9405 264.8414 347.7767 264.85 347.6128C265.7987 347.6128 266.7475 347.6128 267.6962 347.6128C268.5048 347.6128 269.1194 347.781 269.5334 348.1044C269.9603 348.4149 270.1802 348.8742 270.1802 349.4758C270.1802 349.9092 270.0573 350.2908 269.818 350.6143C269.5916 350.9442 269.2746 351.2029 268.8606 351.3905C268.4466 351.5846 267.9679 351.6752 267.4375 351.6752C267.1615 351.6752 266.8855 351.6752 266.6095 351.6752C266.6095 351.4854 266.6095 351.2957 266.6095 351.1059C266.851 351.1059 267.0925 351.1059 267.334 351.1059C267.8644 351.1059 268.2784 350.9765 268.576 350.7178C268.8865 350.4461 269.0417 350.0644 269.0417 349.5793C269.0417 349.1329 268.9124 348.7901 268.6536 348.5443C268.3949 348.3049 268.0197 348.182 267.541 348.182C267.2909 348.182 267.0407 348.182 266.7906 348.182C266.7712 348.2014 266.7647 348.2338 266.7647 348.2855C266.7647 348.3373 266.7647 348.4278 266.7647 348.5443C266.7647 348.6672 266.7647 348.8483 266.7647 349.0877C266.7647 349.3141 266.7647 349.6246 266.7647 350.0192C266.7647 350.8903 266.7647 351.7614 266.7647 352.6325C266.7647 353.0142 266.7647 353.3312 266.7647 353.5899C266.7647 353.8357 266.7712 354.0298 266.7906 354.185C266.8035 354.3273 266.8165 354.4373 266.8165 354.5214C267.0752 354.5904 267.334 354.6594 267.5927 354.7284C267.5755 354.8923 267.5582 355.0562 267.541 355.22C266.6526 355.22 265.7642 355.22 264.8759 355.22M271.0082 355.3494C270.6266 355.3494 270.2902 355.2783 269.9991 355.1424C269.7015 354.9872 269.4169 354.7478 269.1452 354.4179C268.8865 354.0751 268.5889 353.6287 268.2655 353.0724C267.9722 352.5377 267.679 352.0029 267.3857 351.4682C267.7049 351.3905 268.024 351.3129 268.3431 351.2353C268.8089 351.9253 269.2746 352.6153 269.7404 353.3053C269.9797 353.6546 270.1932 353.9392 270.3872 354.1592C270.5942 354.3662 270.7883 354.5214 270.9824 354.6249C271.1699 354.7284 271.3769 354.7996 271.6034 354.8319C271.5947 354.9872 271.5861 355.1424 271.5775 355.2977C271.4869 355.3106 271.3964 355.3235 271.2929 355.3235C271.2023 355.3365 271.1117 355.3494 271.0082 355.3494Z"></path><path fill="#ffffff" stroke="#ffffff" fill-opacity="1" stroke-width="1" stroke-opacity="1" id="tSvge6df12bae5" title="Path 23" d="M276.1608 355.22C276.1522 355.0562 276.1435 354.8923 276.1349 354.7284C276.3937 354.668 276.6524 354.6077 276.9112 354.5473C276.9241 354.4955 276.937 354.392 276.937 354.2368C276.95 354.0815 276.9629 353.8745 276.9629 353.6158C276.9629 353.3441 276.9629 353.0142 276.9629 352.6325C276.9629 351.8218 276.9629 351.011 276.9629 350.2003C276.9629 349.8251 276.9629 349.4952 276.9629 349.217C276.9629 348.9453 276.95 348.7254 276.937 348.5702C276.937 348.4149 276.9241 348.3243 276.9112 348.2855C276.6524 348.2252 276.3937 348.1648 276.1349 348.1044C276.1435 347.9405 276.1522 347.7767 276.1608 347.6128C277.075 347.6128 277.9893 347.6128 278.9035 347.6128C278.9122 347.7767 278.9208 347.9405 278.9294 348.1044C278.6707 348.1648 278.4119 348.2252 278.1532 348.2855C278.1338 348.3243 278.1144 348.4084 278.1014 348.5443C278.082 348.6866 278.0755 348.8936 278.0755 349.1653C278.0755 349.424 278.0755 349.7733 278.0755 350.2003C278.0755 351.011 278.0755 351.8218 278.0755 352.6325C278.0755 353.0465 278.0755 353.3958 278.0755 353.6675C278.0755 353.9263 278.082 354.1333 278.1014 354.2885C278.1144 354.4308 278.1338 354.5149 278.1532 354.5473C278.4119 354.6077 278.6707 354.668 278.9294 354.7284C278.9208 354.8923 278.9122 355.0562 278.9035 355.22C277.9893 355.22 277.075 355.22 276.1608 355.22"></path><path fill="#ffffff" stroke="#ffffff" fill-opacity="1" stroke-width="1" stroke-opacity="1" id="tSvg9a19bdd09a" title="Path 24" d="M288.0277 355.3494C287.2644 355.3494 286.5917 355.1877 286.0095 354.8578C285.4402 354.5149 284.9874 354.0492 284.664 353.4605C284.3341 352.8783 284.1723 352.2056 284.1723 351.4423C284.1723 350.6854 284.3341 350.0127 284.664 349.424C284.9874 348.8224 285.4467 348.3567 286.0353 348.0268C286.6369 347.6839 287.3097 347.5093 288.0536 347.5093C288.7781 347.5093 289.412 347.6775 289.9683 348.0009C290.5182 348.3308 290.9516 348.7901 291.2621 349.3723C291.5726 349.9415 291.7278 350.6078 291.7278 351.3647C291.7278 351.9339 291.6243 352.4643 291.4173 352.943C291.2233 353.4282 290.9581 353.8487 290.6152 354.2109C290.2659 354.5732 289.8713 354.8578 289.425 355.0648C288.9916 355.2524 288.5258 355.3494 288.0277 355.3494ZM288.1312 354.6249C288.6099 354.6249 289.0174 354.5085 289.3473 354.2627C289.6902 354.0233 289.9554 353.6869 290.1495 353.2535C290.3371 352.8072 290.4341 352.2832 290.4341 351.6752C290.4341 350.9701 290.3177 350.3555 290.0977 349.838C289.8907 349.3076 289.5932 348.8936 289.218 348.596C288.8363 348.3049 288.3964 348.1562 287.8983 348.1562C287.1544 348.1562 286.5658 348.4343 286.1388 348.9842C285.7248 349.5211 285.5178 350.265 285.5178 351.2094C285.5178 351.8822 285.6278 352.4773 285.8542 352.9948C286.0742 353.4993 286.3847 353.8939 286.7857 354.185C287.1803 354.4826 287.6267 354.6249 288.1312 354.6249Z"></path><path fill="#ffffff" stroke="#ffffff" fill-opacity="1" stroke-width="1" stroke-opacity="1" id="tSvgd0465663e9" title="Path 25" d="M297.0228 355.22C297.0142 355.0562 297.0056 354.8923 296.997 354.7284C297.2643 354.6594 297.5317 354.5904 297.7991 354.5214C297.7991 354.4697 297.7991 354.3856 297.7991 354.2627C297.7991 354.1268 297.7991 353.9716 297.7991 353.7969C297.7991 353.6287 297.7991 353.4476 297.7991 353.2535C297.812 353.0465 297.825 352.8395 297.825 352.6325C297.825 351.8218 297.825 351.011 297.825 350.2003C297.825 349.8057 297.812 349.4758 297.7991 349.217C297.7991 348.9453 297.7862 348.7254 297.7732 348.5702C297.7732 348.4149 297.7732 348.3243 297.7732 348.2855C297.5058 348.2252 297.2385 348.1648 296.9711 348.1044C296.9797 347.9405 296.9883 347.7767 296.997 347.6128C297.9457 347.6128 298.8945 347.6128 299.8432 347.6128C300.6518 347.6128 301.2663 347.781 301.6803 348.1044C302.1073 348.4149 302.3272 348.8742 302.3272 349.4758C302.3272 349.9092 302.2043 350.2908 301.965 350.6143C301.7386 350.9442 301.4216 351.2029 301.0076 351.3905C300.5936 351.5846 300.1149 351.6752 299.5845 351.6752C299.3085 351.6752 299.0325 351.6752 298.7565 351.6752C298.7565 351.4854 298.7565 351.2957 298.7565 351.1059C298.998 351.1059 299.2395 351.1059 299.481 351.1059C300.0114 351.1059 300.4254 350.9765 300.723 350.7178C301.0335 350.4461 301.1887 350.0644 301.1887 349.5793C301.1887 349.1329 301.0593 348.7901 300.8006 348.5443C300.5418 348.3049 300.1667 348.182 299.688 348.182C299.4378 348.182 299.1877 348.182 298.9376 348.182C298.9182 348.2014 298.9117 348.2338 298.9117 348.2855C298.9117 348.3373 298.9117 348.4278 298.9117 348.5443C298.9117 348.6672 298.9117 348.8483 298.9117 349.0877C298.9117 349.3141 298.9117 349.6246 298.9117 350.0192C298.9117 350.8903 298.9117 351.7614 298.9117 352.6325C298.9117 353.0142 298.9117 353.3312 298.9117 353.5899C298.9117 353.8357 298.9182 354.0298 298.9376 354.185C298.9505 354.3273 298.9635 354.4373 298.9635 354.5214C299.2222 354.5904 299.481 354.6594 299.7397 354.7284C299.7225 354.8923 299.7052 355.0562 299.688 355.22C298.7996 355.22 297.9112 355.22 297.0228 355.22M303.1552 355.3494C302.7736 355.3494 302.4372 355.2783 302.1461 355.1424C301.8485 354.9872 301.5639 354.7478 301.2922 354.4179C301.0335 354.0751 300.7359 353.6287 300.4125 353.0724C300.1192 352.5377 299.826 352.0029 299.5327 351.4682C299.8518 351.3905 300.171 351.3129 300.4901 351.2353C300.9558 351.9253 301.4216 352.6153 301.8873 353.3053C302.1267 353.6546 302.3402 353.9392 302.5342 354.1592C302.7412 354.3662 302.9353 354.5214 303.1293 354.6249C303.3169 354.7284 303.5239 354.7996 303.7503 354.8319C303.7417 354.9872 303.7331 355.1424 303.7245 355.2977C303.6339 355.3106 303.5433 355.3235 303.4398 355.3235C303.3493 355.3365 303.2587 355.3494 303.1552 355.3494Z"></path><path fill="#ffffff" stroke="#ffffff" fill-opacity="1" stroke-width="1" stroke-opacity="1" id="tSvg1392b50e347" title="Path 26" d="M314.7667 347.6128C315.8103 347.6128 316.854 347.6128 317.8976 347.6128C319.256 347.6128 320.3169 347.9427 321.0802 348.596C321.8371 349.2558 322.2187 350.1679 322.2187 351.3388C322.2187 352.1021 322.0376 352.7748 321.6753 353.357C321.326 353.9457 320.8344 354.405 320.2005 354.7284C319.5795 355.0583 318.8614 355.22 318.0528 355.22C316.9575 355.22 315.8621 355.22 314.7667 355.22C314.7581 355.0562 314.7495 354.8923 314.7408 354.7284C314.9996 354.668 315.2583 354.6077 315.5171 354.5473C315.53 354.4632 315.5494 354.2368 315.5688 353.8745C315.5818 353.5123 315.5947 353.0983 315.5947 352.6325C315.5947 351.8218 315.5947 351.011 315.5947 350.2003C315.5947 349.6828 315.5818 349.2558 315.5688 348.9065C315.5494 348.5443 315.53 348.3373 315.5171 348.2855C315.2583 348.2252 314.9996 348.1648 314.7408 348.1044C314.7495 347.9405 314.7581 347.7767 314.7667 347.6128M316.7073 348.3114C316.7073 348.402 316.7073 348.5119 316.7073 348.6478C316.7073 348.7901 316.6944 348.9777 316.6815 349.217C316.6815 349.4628 316.6815 349.7863 316.6815 350.2003C316.6815 351.011 316.6815 351.8218 316.6815 352.6325C316.6815 352.8913 316.6815 353.1436 316.6815 353.3829C316.6944 353.6093 316.7073 353.8163 316.7073 354.0039C316.7203 354.1786 316.7397 354.3273 316.7591 354.4438C317.0308 354.4826 317.2766 354.5085 317.4836 354.5214C317.7035 354.5408 317.9235 354.5473 318.1305 354.5473C319.0426 354.5473 319.7347 354.3079 320.2005 353.8228C320.6792 353.3441 320.925 352.6325 320.925 351.701C320.925 351.1512 320.8538 350.6596 320.718 350.2262C320.5757 349.7992 320.3687 349.437 320.097 349.1394C319.8382 348.8289 319.5083 348.609 319.1137 348.4667C318.7127 348.3114 318.2598 348.2338 317.7423 348.2338C317.5871 348.2338 317.4189 348.2467 317.2507 348.2597C317.0761 348.2597 316.8949 348.2791 316.7073 348.3114Z"></path><path fill="#ffffff" stroke="#ffffff" fill-opacity="1" stroke-width="1" stroke-opacity="1" id="tSvg5c95b15201" title="Path 27" d="M333.2063 355.2977C332.9605 355.2588 332.7405 355.233 332.5335 355.22C332.3395 355.22 332.1583 355.22 331.9901 355.22C330.5153 355.22 329.0404 355.22 327.5655 355.22C327.5483 355.0562 327.531 354.8923 327.5138 354.7284C327.7811 354.668 328.0485 354.6077 328.3159 354.5473C328.3288 354.4955 328.3418 354.392 328.3418 354.2368C328.3547 354.0815 328.3676 353.8745 328.3676 353.6158C328.3676 353.3441 328.3676 353.0142 328.3676 352.6325C328.3676 351.8218 328.3676 351.011 328.3676 350.2003C328.3676 349.8251 328.3676 349.4952 328.3676 349.217C328.3676 348.9453 328.3547 348.7254 328.3418 348.5702C328.3418 348.4149 328.3288 348.3243 328.3159 348.2855C328.0485 348.2252 327.7811 348.1648 327.5138 348.1044C327.531 347.9405 327.5483 347.7767 327.5655 347.6128C328.9455 347.6128 330.3255 347.6128 331.7055 347.6128C331.822 347.6128 331.9513 347.6128 332.0936 347.6128C332.2295 347.6128 332.3783 347.6128 332.5335 347.6128C332.6888 347.5998 332.844 347.5804 332.9993 347.561C333.0855 348.1303 333.1718 348.6995 333.258 349.2688C333.0683 349.3033 332.8785 349.3378 332.6888 349.3723C332.5421 349.01 332.3955 348.6478 332.2489 348.2855C332.1777 348.2726 332.1001 348.2597 332.016 348.2597C331.9255 348.2467 331.8414 348.2338 331.7573 348.2338C331.2656 348.2338 330.774 348.2338 330.2824 348.2338C330.1271 348.2338 329.9784 348.2467 329.8425 348.2597C329.7196 348.2597 329.5967 348.2726 329.4803 348.2855C329.4803 348.3243 329.4803 348.4149 329.4803 348.5702C329.4803 348.7254 329.4673 348.9065 329.4544 349.1135C329.4544 349.3205 329.4544 349.5275 329.4544 349.7345C329.4544 350.8989 329.4544 352.0633 329.4544 353.2277C329.4544 353.4023 329.4544 353.5834 329.4544 353.771C329.4673 353.9457 329.4803 354.1009 329.4803 354.2368C329.4803 354.3597 329.4803 354.4567 329.4803 354.5214C329.6161 354.5214 329.7455 354.5343 329.8684 354.5473C330.0042 354.5473 330.153 354.5473 330.3083 354.5473C330.7309 354.5473 331.1535 354.5473 331.5761 354.5473C331.7637 354.5473 331.919 354.5473 332.0419 354.5473C332.1583 354.5473 332.2554 354.5473 332.3265 354.5473C332.3912 354.5343 332.443 354.5149 332.4818 354.4955C332.706 354.0902 332.9303 353.6848 333.1545 353.2794C333.3529 353.3139 333.5513 353.3484 333.7496 353.3829C333.5685 354.0212 333.3874 354.6594 333.2063 355.2977M331.7831 352.5549C331.7314 352.2617 331.6796 351.9684 331.6279 351.6752C331.5761 351.6622 331.4985 351.6493 331.395 351.6493C331.2915 351.6363 331.1686 351.6234 331.0328 351.6234C330.705 351.6234 330.3773 351.6234 330.0495 351.6234C329.9266 351.6234 329.7972 351.6363 329.6614 351.6493C329.5385 351.6493 329.4091 351.6622 329.2733 351.6752C329.2733 351.4337 329.2733 351.1922 329.2733 350.9507C329.4091 350.9701 329.5385 350.9765 329.6614 350.9765C329.7972 350.9765 329.9266 350.9765 330.0495 350.9765C330.3773 350.9765 330.705 350.9765 331.0328 350.9765C331.1686 350.9765 331.2915 350.9765 331.395 350.9765C331.4985 350.9765 331.5761 350.9701 331.6279 350.9507C331.6796 350.6488 331.7314 350.3469 331.7831 350.045C331.9643 350.045 332.1454 350.045 332.3265 350.045C332.3265 350.8817 332.3265 351.7183 332.3265 352.5549C332.1454 352.5549 331.9643 352.5549 331.7831 352.5549"></path><path fill="#ffffff" stroke="#ffffff" fill-opacity="1" stroke-width="1" stroke-opacity="1" id="tSvg49d3f2b123" title="Path 28" d="M341.011 355.3494C340.6294 355.3494 340.2412 355.2977 339.8466 355.1942C339.4456 355.0907 339.1221 354.9742 338.8634 354.8319C338.8375 354.2713 338.8116 353.7107 338.7858 353.15C338.9755 353.1328 339.1653 353.1155 339.355 353.0983C339.4758 353.4864 339.5965 353.8745 339.7173 354.2627C339.9243 354.405 340.1442 354.5085 340.39 354.5732C340.6488 354.6443 340.914 354.6767 341.1921 354.6767C341.6191 354.6767 341.9684 354.5732 342.2271 354.3662C342.4859 354.1592 342.6153 353.8875 342.6153 353.5382C342.6153 353.2277 342.5182 352.9818 342.3306 352.7878C342.156 352.5808 341.9231 352.3997 341.632 352.2444C341.3345 352.0892 341.024 351.9468 340.7005 351.8045C340.39 351.6687 340.086 351.507 339.7949 351.3129C339.5167 351.1253 339.2839 350.8989 339.0963 350.6402C338.9022 350.3685 338.8116 350.0192 338.8116 349.6052C338.8116 349.1912 338.9281 348.8289 339.1739 348.5184C339.4132 348.195 339.7431 347.9427 340.1571 347.768C340.5711 347.5804 341.0434 347.4834 341.5803 347.4834C341.8002 347.4834 342.0201 347.5028 342.2271 347.5352C342.4341 347.5546 342.6217 347.5869 342.7964 347.6387C342.984 347.6775 343.1586 347.7292 343.3139 347.7939C343.3484 348.3287 343.3829 348.8634 343.4174 349.3982C343.2276 349.4154 343.0379 349.4327 342.8481 349.4499C342.7274 349.0877 342.6066 348.7254 342.4859 348.3632C342.2077 348.195 341.852 348.1044 341.425 348.1044C340.9916 348.1044 340.6358 348.2208 340.3641 348.4408C340.1054 348.6478 339.976 348.9259 339.976 349.2688C339.976 349.5793 340.0666 349.851 340.2606 350.0709C340.4482 350.2779 340.6811 350.459 340.9593 350.6143C341.2504 350.7695 341.5609 350.9183 341.8908 351.0542C342.2142 351.1965 342.5182 351.3582 342.7964 351.5458C343.0875 351.7204 343.3268 351.9468 343.5209 352.2185C343.7085 352.4773 343.8055 352.8007 343.8055 353.1759C343.8055 353.5899 343.6826 353.9651 343.4433 354.2885C343.1975 354.6184 342.8611 354.8772 342.4341 355.0648C342.0201 355.2524 341.5415 355.3494 341.011 355.3494Z"></path><path fill="#ffffff" stroke="#ffffff" fill-opacity="1" stroke-width="1" stroke-opacity="1" id="tSvg1118697ac2f" title="Path 29" d="M348.9063 355.22C348.8976 355.0562 348.889 354.8923 348.8804 354.7284C349.1391 354.668 349.3979 354.6077 349.6566 354.5473C349.6696 354.4955 349.6825 354.392 349.6825 354.2368C349.6954 354.0815 349.7084 353.8745 349.7084 353.6158C349.7084 353.3441 349.7084 353.0142 349.7084 352.6325C349.7084 351.8218 349.7084 351.011 349.7084 350.2003C349.7084 349.8251 349.7084 349.4952 349.7084 349.217C349.7084 348.9453 349.6954 348.7254 349.6825 348.5702C349.6825 348.4149 349.6696 348.3243 349.6566 348.2855C349.3979 348.2252 349.1391 348.1648 348.8804 348.1044C348.889 347.9405 348.8976 347.7767 348.9063 347.6128C349.8205 347.6128 350.7348 347.6128 351.649 347.6128C351.6576 347.7767 351.6663 347.9405 351.6749 348.1044C351.4161 348.1648 351.1574 348.2252 350.8986 348.2855C350.8792 348.3243 350.8598 348.4084 350.8469 348.5443C350.8275 348.6866 350.821 348.8936 350.821 349.1653C350.821 349.424 350.821 349.7733 350.821 350.2003C350.821 351.011 350.821 351.8218 350.821 352.6325C350.821 353.0465 350.821 353.3958 350.821 353.6675C350.821 353.9263 350.8275 354.1333 350.8469 354.2885C350.8598 354.4308 350.8792 354.5149 350.8986 354.5473C351.1574 354.6077 351.4161 354.668 351.6749 354.7284C351.6663 354.8923 351.6576 355.0562 351.649 355.22C350.7348 355.22 349.8205 355.22 348.9063 355.22"></path><path fill="#ffffff" stroke="#ffffff" fill-opacity="1" stroke-width="1" stroke-opacity="1" id="tSvg1227e2c5ff8" title="Path 30" d="M361.0837 355.3494C360.3074 355.3494 359.5959 355.2071 358.9619 354.9095C358.3409 354.6184 357.8364 354.185 357.4612 353.6158C357.0989 353.0465 356.9178 352.3414 356.9178 351.494C356.9178 350.9442 357.0084 350.4332 357.2024 349.9674C357.39 349.4887 357.6682 349.0618 358.0304 348.6995C358.4056 348.3243 358.8584 348.0268 359.3759 347.8198C359.9064 347.6128 360.5209 347.5093 361.2131 347.5093C361.5753 347.5093 361.9505 347.5481 362.3516 347.6128C362.7461 347.6839 363.089 347.781 363.3866 347.8974C363.4124 348.4667 363.4383 349.0359 363.4642 349.6052C363.2744 349.6224 363.0847 349.6397 362.8949 349.6569C362.7742 349.2688 362.6534 348.8807 362.5327 348.4925C362.358 348.3761 362.1316 348.2855 361.8599 348.2338C361.5818 348.182 361.3295 348.1562 361.1096 348.1562C360.4368 348.1562 359.8934 348.3049 359.4794 348.596C359.0654 348.8742 358.7549 349.2429 358.5479 349.7087C358.3539 350.1744 358.2633 350.6854 358.2633 351.2353C358.2633 351.9792 358.3927 352.6067 358.6514 353.1242C358.9102 353.6287 359.2595 354.0039 359.7123 354.2627C360.1586 354.5214 360.6697 354.6508 361.2389 354.6508C361.4783 354.6508 361.7435 354.6184 362.0411 354.5473C362.3321 354.4826 362.5974 354.3597 362.8432 354.185C362.7397 354.4265 362.6362 354.668 362.5327 354.9095C362.5327 354.461 362.5327 354.0125 362.5327 353.564C362.5327 353.2729 362.5197 353.0207 362.5068 352.8137C362.5068 352.5937 362.4939 352.4255 362.4809 352.322C362.1877 352.2703 361.8944 352.2185 361.6012 352.1668C361.6098 351.9943 361.6184 351.8218 361.6271 351.6493C362.4637 351.6493 363.3003 351.6493 364.1369 351.6493C364.1456 351.8132 364.1542 351.977 364.1628 352.1409C363.9731 352.1927 363.7833 352.2444 363.5936 352.2962C363.5936 352.3479 363.5936 352.4643 363.5936 352.6325C363.5936 352.7878 363.5936 352.9818 363.5936 353.2018C363.5936 353.5123 363.5936 353.771 363.5936 353.978C363.6065 354.185 363.6259 354.405 363.6453 354.6249C363.296 354.8513 362.8949 355.0324 362.4292 355.1683C361.9634 355.2847 361.5106 355.3494 361.0837 355.3494Z"></path><path fill="#ffffff" stroke="#ffffff" fill-opacity="1" stroke-width="1" stroke-opacity="1" id="tSvg1248baa3454" title="Path 31" d="M375.1503 353.357C375.1503 352.391 375.1503 351.425 375.1503 350.459C375.1503 349.9609 375.1373 349.5534 375.1244 349.2429C375.1244 348.9324 375.1115 348.7125 375.0985 348.5702C375.0985 348.4149 375.0856 348.3243 375.0727 348.2855C374.7794 348.2252 374.4862 348.1648 374.1929 348.1044C374.2102 347.9405 374.2274 347.7767 374.2447 347.6128C375.064 347.6128 375.8834 347.6128 376.7028 347.6128C376.7114 347.7767 376.72 347.9405 376.7287 348.1044C376.4613 348.1648 376.1939 348.2252 375.9265 348.2855C375.9265 348.3243 375.9136 348.4149 375.9007 348.5702C375.9007 348.7125 375.8877 348.9324 375.8748 349.2429C375.8748 349.5534 375.8748 349.9609 375.8748 350.459C375.8748 351.4854 375.8748 352.5118 375.8748 353.5382C375.8748 353.8163 375.8748 354.1009 375.8748 354.392C375.8748 354.6702 375.8748 354.9613 375.8748 355.2718C375.685 355.2718 375.4953 355.2718 375.3055 355.2718C373.7185 353.1328 372.1315 350.9938 370.5445 348.8548C370.6394 348.8548 370.7343 348.8548 370.8292 348.8548C370.8292 350.0105 370.8292 351.1663 370.8292 352.322C370.8292 352.8395 370.8292 353.2535 370.8292 353.564C370.8421 353.8745 370.855 354.1074 370.855 354.2627C370.868 354.4179 370.8874 354.5149 370.9068 354.5473C371.2 354.6077 371.4933 354.668 371.7865 354.7284C371.7693 354.8923 371.752 355.0562 371.7348 355.22C370.9068 355.22 370.0788 355.22 369.2508 355.22C369.2422 355.0562 369.2335 354.8923 369.2249 354.7284C369.4837 354.668 369.7424 354.6077 370.0012 354.5473C370.0141 354.5149 370.027 354.4308 370.027 354.2885C370.04 354.1333 370.0529 353.9004 370.0529 353.5899C370.0658 353.2665 370.0788 352.8395 370.0788 352.322C370.0788 351.5889 370.0788 350.8558 370.0788 350.1227C370.0788 349.7281 370.0658 349.4111 370.0529 349.1653C370.0529 348.9065 370.04 348.7125 370.027 348.5702C370.027 348.4343 370.0141 348.3373 370.0012 348.2855C369.7424 348.2252 369.4837 348.1648 369.2249 348.1044C369.2335 347.9405 369.2422 347.7767 369.2508 347.6128C369.8459 347.6128 370.441 347.6128 371.0362 347.6128C372.4852 349.5275 373.9342 351.4423 375.1503 353.357Z"></path><path fill="#ffffff" stroke="#ffffff" fill-opacity="1" stroke-width="1" stroke-opacity="1" id="tSvg13ffb2b00c9" title="Path 32" d="M387.5868 355.2977C387.341 355.2588 387.1211 355.233 386.9141 355.22C386.72 355.22 386.5389 355.22 386.3707 355.22C384.8958 355.22 383.421 355.22 381.9461 355.22C381.9288 355.0562 381.9116 354.8923 381.8943 354.7284C382.1617 354.668 382.4291 354.6077 382.6965 354.5473C382.7094 354.4955 382.7223 354.392 382.7223 354.2368C382.7353 354.0815 382.7482 353.8745 382.7482 353.6158C382.7482 353.3441 382.7482 353.0142 382.7482 352.6325C382.7482 351.8218 382.7482 351.011 382.7482 350.2003C382.7482 349.8251 382.7482 349.4952 382.7482 349.217C382.7482 348.9453 382.7353 348.7254 382.7223 348.5702C382.7223 348.4149 382.7094 348.3243 382.6965 348.2855C382.4291 348.2252 382.1617 348.1648 381.8943 348.1044C381.9116 347.9405 381.9288 347.7767 381.9461 347.6128C383.3261 347.6128 384.7061 347.6128 386.0861 347.6128C386.2025 347.6128 386.3319 347.6128 386.4742 347.6128C386.61 347.6128 386.7588 347.6128 386.9141 347.6128C387.0693 347.5998 387.2246 347.5804 387.3798 347.561C387.4661 348.1303 387.5523 348.6995 387.6386 349.2688C387.4488 349.3033 387.2591 349.3378 387.0693 349.3723C386.9227 349.01 386.7761 348.6478 386.6295 348.2855C386.5583 348.2726 386.4807 348.2597 386.3966 348.2597C386.306 348.2467 386.2219 348.2338 386.1378 348.2338C385.6462 348.2338 385.1546 348.2338 384.663 348.2338C384.5077 348.2338 384.3589 348.2467 384.2231 348.2597C384.1002 348.2597 383.9773 348.2726 383.8608 348.2855C383.8608 348.3243 383.8608 348.4149 383.8608 348.5702C383.8608 348.7254 383.8479 348.9065 383.835 349.1135C383.835 349.3205 383.835 349.5275 383.835 349.7345C383.835 350.8989 383.835 352.0633 383.835 353.2277C383.835 353.4023 383.835 353.5834 383.835 353.771C383.8479 353.9457 383.8608 354.1009 383.8608 354.2368C383.8608 354.3597 383.8608 354.4567 383.8608 354.5214C383.9967 354.5214 384.126 354.5343 384.249 354.5473C384.3848 354.5473 384.5336 354.5473 384.6888 354.5473C385.1115 354.5473 385.5341 354.5473 385.9567 354.5473C386.1443 354.5473 386.2995 354.5473 386.4225 354.5473C386.5389 354.5473 386.6359 354.5473 386.7071 354.5473C386.7718 354.5343 386.8235 354.5149 386.8623 354.4955C387.0866 354.0902 387.3108 353.6848 387.5351 353.2794C387.7335 353.3139 387.9318 353.3484 388.1302 353.3829C387.9491 354.0212 387.768 354.6594 387.5868 355.2977M386.1637 352.5549C386.112 352.2617 386.0602 351.9684 386.0085 351.6752C385.9567 351.6622 385.8791 351.6493 385.7756 351.6493C385.6721 351.6363 385.5492 351.6234 385.4133 351.6234C385.0856 351.6234 384.7578 351.6234 384.4301 351.6234C384.3072 351.6234 384.1778 351.6363 384.042 351.6493C383.919 351.6493 383.7897 351.6622 383.6538 351.6752C383.6538 351.4337 383.6538 351.1922 383.6538 350.9507C383.7897 350.9701 383.919 350.9765 384.042 350.9765C384.1778 350.9765 384.3072 350.9765 384.4301 350.9765C384.7578 350.9765 385.0856 350.9765 385.4133 350.9765C385.5492 350.9765 385.6721 350.9765 385.7756 350.9765C385.8791 350.9765 385.9567 350.9701 386.0085 350.9507C386.0602 350.6488 386.112 350.3469 386.1637 350.045C386.3448 350.045 386.526 350.045 386.7071 350.045C386.7071 350.8817 386.7071 351.7183 386.7071 352.5549C386.526 352.5549 386.3448 352.5549 386.1637 352.5549"></path><path fill="#ffffff" stroke="#ffffff" fill-opacity="1" stroke-width="1" stroke-opacity="1" id="tSvg8d4f42c019" title="Path 33" d="M393.1405 355.22C393.1318 355.0562 393.1232 354.8923 393.1146 354.7284C393.382 354.6594 393.6493 354.5904 393.9167 354.5214C393.9167 354.4697 393.9167 354.3856 393.9167 354.2627C393.9167 354.1268 393.9167 353.9716 393.9167 353.7969C393.9167 353.6287 393.9167 353.4476 393.9167 353.2535C393.9296 353.0465 393.9426 352.8395 393.9426 352.6325C393.9426 351.8218 393.9426 351.011 393.9426 350.2003C393.9426 349.8057 393.9296 349.4758 393.9167 349.217C393.9167 348.9453 393.9038 348.7254 393.8908 348.5702C393.8908 348.4149 393.8908 348.3243 393.8908 348.2855C393.6235 348.2252 393.3561 348.1648 393.0887 348.1044C393.0973 347.9405 393.106 347.7767 393.1146 347.6128C394.0633 347.6128 395.0121 347.6128 395.9608 347.6128C396.7694 347.6128 397.384 347.781 397.798 348.1044C398.2249 348.4149 398.4448 348.8742 398.4448 349.4758C398.4448 349.9092 398.3219 350.2908 398.0826 350.6143C397.8562 350.9442 397.5392 351.2029 397.1252 351.3905C396.7112 351.5846 396.2325 351.6752 395.7021 351.6752C395.4261 351.6752 395.1501 351.6752 394.8741 351.6752C394.8741 351.4854 394.8741 351.2957 394.8741 351.1059C395.1156 351.1059 395.3571 351.1059 395.5986 351.1059C396.129 351.1059 396.543 350.9765 396.8406 350.7178C397.1511 350.4461 397.3063 350.0644 397.3063 349.5793C397.3063 349.1329 397.177 348.7901 396.9182 348.5443C396.6595 348.3049 396.2843 348.182 395.8056 348.182C395.5555 348.182 395.3053 348.182 395.0552 348.182C395.0358 348.2014 395.0293 348.2338 395.0293 348.2855C395.0293 348.3373 395.0293 348.4278 395.0293 348.5443C395.0293 348.6672 395.0293 348.8483 395.0293 349.0877C395.0293 349.3141 395.0293 349.6246 395.0293 350.0192C395.0293 350.8903 395.0293 351.7614 395.0293 352.6325C395.0293 353.0142 395.0293 353.3312 395.0293 353.5899C395.0293 353.8357 395.0358 354.0298 395.0552 354.185C395.0681 354.3273 395.0811 354.4373 395.0811 354.5214C395.3398 354.5904 395.5986 354.6594 395.8573 354.7284C395.8401 354.8923 395.8228 355.0562 395.8056 355.22C394.9172 355.22 394.0288 355.22 393.1405 355.22M399.2728 355.3494C398.8912 355.3494 398.5548 355.2783 398.2637 355.1424C397.9661 354.9872 397.6815 354.7478 397.4098 354.4179C397.1511 354.0751 396.8535 353.6287 396.5301 353.0724C396.2368 352.5377 395.9436 352.0029 395.6503 351.4682C395.9695 351.3905 396.2886 351.3129 396.6077 351.2353C397.0735 351.9253 397.5392 352.6153 398.005 353.3053C398.2443 353.6546 398.4578 353.9392 398.6518 354.1592C398.8588 354.3662 399.0529 354.5214 399.247 354.6249C399.4345 354.7284 399.6415 354.7996 399.868 354.8319C399.8593 354.9872 399.8507 355.1424 399.8421 355.2977C399.7515 355.3106 399.661 355.3235 399.5575 355.3235C399.4669 355.3365 399.3763 355.3494 399.2728 355.3494Z"></path><path fill="#ffffff" stroke="#ffffff" fill-opacity="1" stroke-width="1" stroke-opacity="1" stroke-linecap="butt" stroke-linejoin="miter" stroke-miterlimit="4" id="tSvg15818dc3dac" title="Path 34" d="M126.6969 223.6894C249.3876 223.7929 372.0783 223.8964 494.769 223.9999"></path><path fill="#ffffff" stroke="#ffffff" fill-opacity="1" stroke-width="1" stroke-opacity="1" stroke-linecap="butt" stroke-linejoin="miter" stroke-miterlimit="4" id="tSvg1010a9622c3" title="Path 35" d="M126.6969 392.3426C249.3876 392.3426 372.0782 392.3426 494.7688 392.3426"></path><path fill="#ffffff" stroke="#ffffff" fill-opacity="1" stroke-width="1" stroke-opacity="1" stroke-linecap="butt" stroke-linejoin="miter" stroke-miterlimit="4" id="tSvg21735934ec" title="Path 36" d="M127.3115 224.0128C127.1562 234.6755 127.001 245.3381 126.8457 256.0008"></path><path fill="#ffffff" stroke="#ffffff" fill-opacity="1" stroke-width="1" stroke-opacity="1" stroke-linecap="butt" stroke-linejoin="miter" stroke-miterlimit="4" id="tSvg3b3dc2dbc2" title="Path 37" d="M494.1417 224.0069C494.1417 243.0552 494.1417 262.1035 494.1417 281.1518"></path><path fill="#ffffff" stroke="#ffffff" fill-opacity="1" stroke-width="1" stroke-opacity="1" stroke-linecap="butt" stroke-linejoin="miter" stroke-miterlimit="4" id="tSvg162c5a9e603" title="Path 38" d="M126.8455 350.8065C126.8455 364.848 126.8455 378.8895 126.8455 392.931"></path><path fill="#ffffff" stroke="#ffffff" fill-opacity="1" stroke-width="1" stroke-opacity="1" stroke-linecap="butt" stroke-linejoin="miter" stroke-miterlimit="4" id="tSvg16afce9002" title="Path 39" d="M495.3837 337.9022C495.3837 356.2454 495.3837 374.5886 495.3837 392.9318"></path></svg> 